<?xml version="1.0" encoding="UTF-8"?>
<svg id="mb-stern_x5F_10" xmlns="http://www.w3.org/2000/svg" version="1.1" xmlns:xlink="http://www.w3.org/1999/xlink" viewBox="0 0 2500 2500">
  <!-- Generator: Adobe Illustrator 29.2.1, SVG Export Plug-In . SVG Version: 2.1.0 Build 116)  -->
  <defs>
    <style>
      .st0 {
        fill: url(#linear-gradient9);
      }

      .st0, .st1, .st2, .st3, .st4, .st5, .st6, .st7, .st8, .st9, .st10, .st11, .st12, .st13, .st14, .st15, .st16, .st17, .st18, .st19, .st20 {
        opacity: .8;
      }

      .st1 {
        fill: url(#linear-gradient4);
      }

      .st2 {
        fill: #fbfbfb;
      }

      .st3 {
        fill: url(#linear-gradient);
      }

      .st4 {
        fill: url(#linear-gradient10);
      }

      .st5 {
        fill: url(#linear-gradient12);
      }

      .st6 {
        fill: url(#linear-gradient2);
      }

      .st6, .st7, .st18 {
        isolation: isolate;
      }

      .st7 {
        fill: url(#linear-gradient3);
      }

      .st8 {
        fill: url(#linear-gradient1);
      }

      .st9 {
        fill: url(#linear-gradient8);
      }

      .st10 {
        fill: #3c3c3c;
      }

      .st11 {
        fill: url(#linear-gradient14);
      }

      .st12 {
        fill: url(#linear-gradient6);
        fill-opacity: .8;
      }

      .st13 {
        fill: #fff;
      }

      .st14 {
        fill: url(#linear-gradient11);
      }

      .st15 {
        fill: url(#linear-gradient5);
      }

      .st16 {
        fill: #5e5e5e;
      }

      .st17 {
        fill: url(#linear-gradient13);
      }

      .st18 {
        fill: url(#linear-gradient7);
      }

      .st19 {
        fill: #3d3d3d;
      }

      .st20 {
        fill: #a9a9a9;
        fill-opacity: .6;
      }
    </style>
    <linearGradient id="linear-gradient" x1="-2508.4" y1="1215.2" x2="-2460.4" y2="1255.4" gradientTransform="translate(98296.9 -47003.1) scale(39.1)" gradientUnits="userSpaceOnUse">
      <stop offset="0" stop-color="#fff"/>
      <stop offset="0" stop-color="#cacaca"/>
      <stop offset="0" stop-color="#cfcfcf"/>
      <stop offset=".2" stop-color="#bababa"/>
      <stop offset=".2" stop-color="#ababab"/>
      <stop offset=".3" stop-color="#a2a2a2"/>
      <stop offset=".3" stop-color="#9f9f9f"/>
      <stop offset=".4" stop-color="#898989"/>
      <stop offset=".5" stop-color="#6e6e6e"/>
      <stop offset=".6" stop-color="#5b5b5b"/>
      <stop offset=".7" stop-color="#505050"/>
      <stop offset=".8" stop-color="#4c4c4c"/>
      <stop offset="1" stop-color="#4f4f4f"/>
    </linearGradient>
    <linearGradient id="linear-gradient1" x1="-2506.9" y1="1216.3" x2="-2461.9" y2="1254.1" gradientTransform="translate(98296.9 -47003.1) scale(39.1)" gradientUnits="userSpaceOnUse">
      <stop offset="0" stop-color="#1d1d1d"/>
      <stop offset=".2" stop-color="#3d3d3d"/>
      <stop offset=".5" stop-color="#7e7e7e"/>
      <stop offset=".5" stop-color="#888"/>
      <stop offset=".7" stop-color="#b7b7b7"/>
      <stop offset=".8" stop-color="#b3b3b3"/>
      <stop offset=".8" stop-color="#dfdfdf"/>
      <stop offset="1" stop-color="#fbfbfb"/>
    </linearGradient>
    <linearGradient id="linear-gradient2" x1="-999.9" y1="1491.7" x2="-978" y2="1551.9" gradientTransform="translate(-37381 60692.5) rotate(-180) scale(39.1)" gradientUnits="userSpaceOnUse">
      <stop offset="0" stop-color="#d9d9d9"/>
      <stop offset="0" stop-color="#c4c4c4"/>
      <stop offset=".3" stop-color="#a0a0a0"/>
      <stop offset=".5" stop-color="#838383"/>
      <stop offset=".7" stop-color="#6f6f6f" stop-opacity="0"/>
      <stop offset=".8" stop-color="#636363" stop-opacity="0"/>
      <stop offset="1" stop-color="#5f5f5f" stop-opacity="0"/>
    </linearGradient>
    <linearGradient id="linear-gradient3" x1="-2498.2" y1="1211.4" x2="-2470.6" y2="1259.2" gradientTransform="translate(98296.9 -47003.1) scale(39.1)" gradientUnits="userSpaceOnUse">
      <stop offset="0" stop-color="#d9d9d9"/>
      <stop offset="0" stop-color="#c4c4c4"/>
      <stop offset=".3" stop-color="#a0a0a0"/>
      <stop offset=".5" stop-color="#838383"/>
      <stop offset=".7" stop-color="#6f6f6f" stop-opacity="0"/>
      <stop offset=".8" stop-color="#636363" stop-opacity="0"/>
      <stop offset="1" stop-color="#5f5f5f" stop-opacity="0"/>
    </linearGradient>
    <linearGradient id="linear-gradient4" x1="-2471.9" y1="1242.7" x2="-2473.6" y2="1245.5" gradientTransform="translate(98296.9 -47003.1) scale(39.1)" gradientUnits="userSpaceOnUse">
      <stop offset="0" stop-color="#323232"/>
      <stop offset="1" stop-color="#00111e" stop-opacity="0"/>
    </linearGradient>
    <linearGradient id="linear-gradient5" x1="-2476.8" y1="1232.4" x2="-2479.6" y2="1227.9" gradientTransform="translate(98296.9 -47003.1) scale(39.1)" gradientUnits="userSpaceOnUse">
      <stop offset="0" stop-color="#02131f"/>
      <stop offset=".9" stop-color="#02131f" stop-opacity="0"/>
    </linearGradient>
    <linearGradient id="linear-gradient6" x1="-2484.4" y1="1239.6" x2="-2488.6" y2="1240.8" gradientTransform="translate(98296.9 -47003.1) scale(39.1)" gradientUnits="userSpaceOnUse">
      <stop offset=".2" stop-color="#02131f"/>
      <stop offset=".9" stop-color="#02131f" stop-opacity="0"/>
    </linearGradient>
    <linearGradient id="linear-gradient7" x1="-2495.6" y1="1245.2" x2="-2496.2" y2="1243.7" gradientTransform="translate(98296.9 -47003.1) scale(39.1)" gradientUnits="userSpaceOnUse">
      <stop offset="0" stop-color="#02131f"/>
      <stop offset="0" stop-color="#02131f"/>
      <stop offset="1" stop-color="#02131f" stop-opacity="0"/>
    </linearGradient>
    <linearGradient id="linear-gradient8" x1="-2480.8" y1="1220.5" x2="-2484.2" y2="1220.9" gradientTransform="translate(98296.9 -47003.1) scale(39.1)" gradientUnits="userSpaceOnUse">
      <stop offset=".3" stop-color="#02131f"/>
      <stop offset=".3" stop-color="#02131f"/>
      <stop offset=".8" stop-color="#02131f" stop-opacity="0"/>
    </linearGradient>
    <linearGradient id="linear-gradient9" x1="-2480.7" y1="1220.4" x2="-2483" y2="1220.7" gradientTransform="translate(98296.9 -47003.1) scale(39.1)" gradientUnits="userSpaceOnUse">
      <stop offset=".4" stop-color="#323232"/>
      <stop offset="1" stop-color="#454545" stop-opacity="0"/>
    </linearGradient>
    <linearGradient id="linear-gradient10" x1="-2516.8" y1="1236.1" x2="-2488.9" y2="1252.2" gradientTransform="translate(98296.9 -47003.1) scale(39.1)" gradientUnits="userSpaceOnUse">
      <stop offset="0" stop-color="#2f2f2f" stop-opacity="0"/>
      <stop offset="0" stop-color="#303030" stop-opacity="0"/>
      <stop offset="0" stop-color="#323232"/>
    </linearGradient>
    <linearGradient id="linear-gradient11" x1="-2484.5" y1="1240.7" x2="-2484.5" y2="1235.9" gradientTransform="translate(98296.9 -47003.1) scale(39.1)" gradientUnits="userSpaceOnUse">
      <stop offset=".3" stop-color="#aaa"/>
      <stop offset="1" stop-color="#aaa" stop-opacity="0"/>
    </linearGradient>
    <linearGradient id="linear-gradient12" x1="-2468.8" y1="1205.6" x2="-2468.8" y2="1266.6" gradientTransform="translate(98296.9 -47003.1) scale(39.1)" gradientUnits="userSpaceOnUse">
      <stop offset="0" stop-color="#dfdfdf"/>
      <stop offset="0" stop-color="#c8c8c8"/>
      <stop offset="0" stop-color="#a3a3a3"/>
      <stop offset="0" stop-color="#888"/>
      <stop offset="0" stop-color="#787878"/>
      <stop offset="0" stop-color="#727272"/>
      <stop offset=".2" stop-color="#3d3d3d"/>
      <stop offset=".5" stop-color="#323232"/>
      <stop offset=".8" stop-color="#3d3d3d"/>
      <stop offset="1" stop-color="#4c4c4c"/>
    </linearGradient>
    <linearGradient id="linear-gradient13" x1="-2484.4" y1="1204" x2="-2484.1" y2="1204" gradientTransform="translate(98296.9 -47003.1) scale(39.1)" gradientUnits="userSpaceOnUse">
      <stop offset="0" stop-color="#dfdfdf"/>
      <stop offset="0" stop-color="#c8c8c8"/>
      <stop offset="0" stop-color="#a3a3a3"/>
      <stop offset="0" stop-color="#888"/>
      <stop offset="0" stop-color="#787878"/>
      <stop offset="0" stop-color="#727272"/>
      <stop offset=".2" stop-color="#3d3d3d"/>
      <stop offset=".5" stop-color="#323232"/>
      <stop offset=".8" stop-color="#3d3d3d"/>
      <stop offset="1" stop-color="#4c4c4c"/>
    </linearGradient>
    <linearGradient id="linear-gradient14" x1="-2459.1" y1="1211.4" x2="-2472.6" y2="1231.2" gradientTransform="translate(98296.9 -47003.1) scale(39.1)" gradientUnits="userSpaceOnUse">
      <stop offset=".7" stop-color="#323232"/>
      <stop offset=".7" stop-color="#353535"/>
      <stop offset=".7" stop-color="#404040"/>
      <stop offset=".7" stop-color="#525252"/>
      <stop offset=".8" stop-color="#6c6c6c" stop-opacity="0"/>
      <stop offset=".8" stop-color="#8c8c8c" stop-opacity="0"/>
      <stop offset=".8" stop-color="#b4b4b4" stop-opacity="0"/>
      <stop offset=".8" stop-color="#e3e3e3" stop-opacity="0"/>
      <stop offset=".8" stop-color="#fff" stop-opacity="0"/>
    </linearGradient>
  </defs>
  <path id="outer" class="st3" d="M2472.7,1250c0,675.8-546.9,1222.7-1222.7,1222.7S27.3,1925.8,27.3,1250,574.2,27.3,1250,27.3s1222.7,546.9,1222.7,1222.7ZM1250,101.6c-636.7,0-1148.4,511.7-1148.4,1148.4s515.6,1148.4,1148.4,1148.4,1148.4-515.6,1148.4-1148.4S1886.7,101.6,1250,101.6Z"/>
  <path class="st8" d="M1250,101.6c-636.7,0-1148.4,511.7-1148.4,1148.4s515.6,1148.4,1148.4,1148.4,1148.4-515.6,1148.4-1148.4S1886.7,101.6,1250,101.6ZM1250,2324.2c-593.8,0-1074.2-480.5-1074.2-1074.2S656.2,175.8,1250,175.8s1074.2,480.5,1074.2,1074.2-480.5,1074.2-1074.2,1074.2Z"/>
  <path class="st6" d="M1250,2472.7c675.8,0,1222.7-546.9,1222.7-1222.7S1925.8,27.3,1250,27.3,27.3,574.2,27.3,1250s546.9,1222.7,1222.7,1222.7ZM1250,0c687.5,0,1250,562.5,1250,1250s-562.5,1250-1250,1250S0,1937.5,0,1250,562.5,0,1250,0Z"/>
  <path class="st13" d="M85.9,1253.9C85.9,613.3,605.5,85.9,1250,85.9s1164.1,523.4,1164.1,1168-519.5,1160.2-1164.1,1160.2S85.9,1894.5,85.9,1253.9ZM449.2,449.2c-207,207-335.9,492.2-335.9,804.7s128.9,597.7,332,800.8c207,203.1,492.2,332,804.7,332s597.7-125,800.8-332c207-203.1,332-488.3,332-800.8s-128.9-597.7-332-804.7c-203.1-207-488.3-335.9-800.8-335.9S652.3,242.2,449.2,449.2h0Z"/>
  <path class="st7" d="M1250,2328.1c-289.1,0-558.6-113.3-761.7-316.4-203.1-203.1-316.4-472.7-316.4-761.7s113.3-558.6,316.4-761.7c203.1-203.1,472.7-316.4,761.7-316.4s558.6,113.3,761.7,316.4c203.1,203.1,316.4,472.7,316.4,761.7s-113.3,558.6-316.4,761.7-472.7,316.4-761.7,316.4ZM1250,2296.9c277.3,0,543-109.4,738.3-304.7s304.7-460.9,304.7-738.3-109.4-543-304.7-738.3c-199.2-199.2-460.9-304.7-738.3-304.7s-543,109.4-738.3,304.7c-199.2,191.4-308.6,457-308.6,734.4s109.4,543,304.7,738.3c199.2,199.2,464.8,308.6,742.2,308.6h0Z"/>
  <path class="st13" d="M2199.2,1757.8c-19.5-15.6-773.4-613.3-773.4-613.3l-175.8-1003.9c-11.7,3.9-27.3,15.6-35.2,31.3l-125,976.6-777.3,597.7s-15.6,19.5-23.4,31.2c-3.9,7.8-3.9,19.5-3.9,31.2l960.9-394.5,960.9,394.5c7.8-19.5,0-39.1-7.8-50.8h0Z"/>
  <path class="st16" d="M1257.8,1281.2l-7.8,179.7,882.8,355.5c31.2,15.6,54.7,7.8,78.1-7.8l-941.4-531.2c-3.9-3.9-11.7,0-11.7,3.9Z"/>
  <path class="st1" d="M1257.8,1281.2s50.8,89.8,109.4,152.3c82,89.8,191.4,152.3,191.4,152.3l574.2,230.5c31.2,15.6,54.7,7.8,78.1-7.8l-941.4-531.3c-3.9-3.9-11.7,0-11.7,3.9Z"/>
  <path class="st20" d="M2207,1773.4c0-3.9-3.9-7.8-7.8-15.6l-804.7-589.8-109.4,70.3s7.8,3.9,11.7,0c11.7-3.9,35.2-7.8,58.6,0,19.5,7.8,851.6,539.1,851.6,535.2q0,3.9,0,0h0Z"/>
  <path class="st10" d="M2179.7,1738.3l-750-593.8-35.2,23.4,804.7,593.7c-3.9-7.8-11.7-15.6-19.5-23.4h0Z"/>
  <path class="st16" d="M1269.5,1222.7l-3.9,3.9s0,7.8,7.8,3.9c3.9-3.9,117.2-62.5,156.2-85.9l-136.7-937.5c-3.9-35.2-19.5-50.8-46.9-62.5l15.6,1085.9,7.8-7.8h0Z"/>
  <path class="st20" d="M1203.1,207v50.8l-85.9,863.3c0,11.7,3.9,23.4,15.6,31.2l50.8,39.1,35.2-953.1,3.9-74.2c-11.7,7.8-15.6,23.4-19.5,43h0ZM1156.3,1207l-46.9-39.1-793,574.2s-23.4,15.6-27.3,31.2l27.3-15.6,832-523.4c15.6-7.8,19.5-15.6,7.8-27.3h0Z"/>
  <path class="st16" d="M1238.3,1281.2c0-3.9-3.9-7.8-7.8-3.9l-945.3,535.2c23.4,15.6,46.9,19.5,78.1,7.8l882.8-355.5-7.8-183.6Z"/>
  <path class="st15" d="M1265.6,1226.6l3.9-3.9-3.9,3.9s0,3.9,3.9,3.9h3.9c3.9-3.9,117.2-62.5,156.2-85.9l-15.6-113.3-121.1-824.2c0-15.6-3.9-27.3-11.7-35.2,0,0,58.6,789.1,58.6,875s-74.2,179.7-74.2,179.7h0Z"/>
  <path class="st12" d="M1238.3,1281.2c0-3.9-3.9-7.8-7.8-3.9l-945.3,535.2c23.4,15.6,46.9,19.5,78.1,7.8l882.8-355.5-7.8-183.6Z"/>
  <path class="st18" d="M363.3,1816.4l882.8-355.5-7.8-171.9c-15.6,46.9-43,97.7-117.2,136.7-54.7,31.2-578.1,289.1-765.6,378.9-11.7,7.8-27.3,11.7-35.2,15.6,15.6,7.8,27.3,3.9,43-3.9h0Z"/>
  <path class="st9" d="M1269.5,1222.7l-3.9,3.9s0,7.8,7.8,3.9c3.9-3.9,117.2-62.5,156.2-85.9l-136.7-937.5c-3.9-35.2-19.5-50.8-46.9-62.5l15.6,1085.9,7.8-7.8h0Z"/>
  <path class="st0" d="M1269.5,1222.7l-3.9,3.9s0,7.8,7.8,3.9c3.9-3.9,117.2-62.5,156.2-85.9l-136.7-937.5c-3.9-35.2-19.5-50.8-46.9-62.5l15.6,1085.9,7.8-7.8h0Z"/>
  <path class="st4" d="M199.2,1734.4c-27.3-62.5-183.6-367.2-11.7-953.1h-66.4c-35.2,117.2-62.5,187.5-78.1,293,0,0-7.8,39.1-11.7,82-3.9,43-3.9,66.4-3.9,93.7,0,234.4,58.6,371.1,58.6,371.1,62.5,195.3,171.9,371.1,320.3,503.9,128.9,113.3,328.1,199.2,492.2,230.5-27.3-3.9-496.1-203.1-699.2-621.1h0Z"/>
  <path class="st14" d="M1265.6,1273.4h-35.2c3.9,0,7.8,0,7.8,3.9l7.8,179.7h3.9l7.8-179.7c0-3.9,3.9-7.8,7.8-3.9h0Z"/>
  <path class="st5" d="M1640.6,89.8c410.2,156.3,796.9,585.9,796.9,1128.9s-523.4,1191.4-1187.5,1191.4v62.5c664.1,0,1222.7-546.9,1222.7-1222.7S2128.9,257.8,1640.6,89.8h0Z"/>
  <path class="st17" d="M1261.7,27.3h-11.7,11.7Z"/>
  <path class="st11" d="M2296.9,789.1C2023.4,160.2,1406.2,125,1371.1,121.1h-3.9c472.7,85.9,773.4,394.5,878.9,718.8v3.9c46.9,125,70.3,257.8,74.2,402.3,3.9,136.7-27.3,289.1-85.9,429.7-3.9,19.5-7.8,43-11.7,43h62.5c187.5-351.6,105.5-707,11.7-929.7Z"/>
  <path class="st2" d="M85.9,1253.9C85.9,613.3,605.5,85.9,1250,85.9s1164.1,523.4,1164.1,1168-519.5,1160.2-1164.1,1160.2S85.9,1894.5,85.9,1253.9ZM449.2,449.2c-207,207-335.9,492.2-335.9,804.7s128.9,597.7,332,800.8c207,203.1,492.2,332,804.7,332s597.7-125,800.8-332c207-203.1,332-488.3,332-800.8s-128.9-597.7-332-804.7c-203.1-207-488.3-335.9-800.8-335.9S652.3,242.2,449.2,449.2h0Z"/>
  <path class="st19" d="M308.6,1750l796.9-574.2c43,23.4,113.3,54.7,121.1,54.7,7.8,3.9,7.8-3.9,7.8-3.9l-97.7-82c-11.7-7.8-15.6-19.5-15.6-31.2l93.7-941.4c-3.9,3.9-3.9,11.7-7.8,15.6-3.9,7.8-3.9,11.7-3.9,19.5l-136.7,941.4-750,589.8c-3.9,3.9-7.8,7.8-7.8,11.7h0Z"/>
</svg>