<?xml version="1.0" encoding="UTF-8"?>
<svg id="mb-stern_x5F_10" xmlns="http://www.w3.org/2000/svg" version="1.1" xmlns:xlink="http://www.w3.org/1999/xlink" viewBox="0 0 2500 2500">
  <!-- Generator: Adobe Illustrator 29.2.1, SVG Export Plug-In . SVG Version: 2.1.0 Build 116)  -->
  <defs>
    <style>
      .st0 {
        fill: #cc2229;
        fill-rule: evenodd;
      }

      .st1 {
        fill: url(#linear-gradient);
      }
    </style>
    <linearGradient id="linear-gradient" x1="1103.8" y1="1257.3" x2="1104.1" y2="1257.3" gradientTransform="translate(-41868.8 -49087.4) scale(39.1)" gradientUnits="userSpaceOnUse">
      <stop offset="0" stop-color="#dee0dd"/>
      <stop offset="0" stop-color="#c5c9c7"/>
      <stop offset="0" stop-color="#9ea4a5"/>
      <stop offset="0" stop-color="#82898c"/>
      <stop offset="0" stop-color="#71797d"/>
      <stop offset="0" stop-color="#6b7378"/>
      <stop offset=".2" stop-color="#333f47"/>
      <stop offset=".5" stop-color="#27343c"/>
      <stop offset=".8" stop-color="#333f47"/>
      <stop offset="1" stop-color="#434d54"/>
    </linearGradient>
  </defs>
  <path class="st1" d="M1261.7,27.3h-11.7,11.7Z"/>
  <path class="st0" d="M1171.7,1969.6c-131-82.1-227.6-365.4-227.6-702.1s0-24.6.4-36.7v.2c-364.5-57.3-627.9-214.2-634.7-399.9l-1,2.2c-89.2,110.9-140.1,239.1-140.1,375.6,0,401.9,441.2,731.2,1000.8,760.3l2.3.4ZM0,1238.1C0,788.5,559.6,423.8,1250,423.8s1250,364.6,1250,814.3-559.6,814.3-1250,814.3S0,1687.8,0,1238.1h0ZM1250,541.3c133.3,0,246.7,202.2,288.7,484.3v-.5c259.4-40.3,440.9-133.4,440.9-241.8s-326.7-263.1-729.6-263.1-729.6,117.8-729.6,263.1,181.5,201.4,440.8,241.8l.2.5c42-282.1,155.4-484.3,288.6-484.3h0ZM1330.7,1969.1c559.6-29.1,1000.8-358.4,1000.8-760.3s-51-264.8-140.1-375.6l-1.1-2.2c-6.7,185.7-270.1,342.6-634.8,399.9l.2-.2c.3,12.1.4,24.3.4,36.7,0,336.7-96.6,620-227.6,702.1l2.3-.4ZM1250,1046.5c57.9,0,115.7-2.4,173.3-7.4h0c-27.6-180.7-94.8-308.4-173.2-308.4s-145.5,127.7-173.2,308.4h0c57.6,4.9,115.4,7.4,173.2,7.3h0ZM1250,1716.2c100.3,0,182.2-208.8,186.6-470.7l.5.2c-124.4,11.5-249.7,11.5-374.1,0l.5-.2c4.3,261.8,86.2,470.7,186.5,470.7Z"/>
</svg>